<svg width="118" height="84" viewBox="0 0 118 84" fill="none" xmlns="http://www.w3.org/2000/svg">
<g clip-path="url(#clip0_100_1457)" filter="url(#filter0_d_100_1457)">
<path d="M43.3745 63.076H46.5245C47.9165 63.076 48.6125 63.814 48.6125 65.29V69.124C48.6125 70.588 47.9225 71.32 46.5425 71.32H45.1025V76H43.3745V63.076ZM45.1025 69.754H46.2005C46.6565 69.754 46.8845 69.502 46.8845 68.998V65.398C46.8845 64.894 46.6265 64.642 46.1105 64.642H45.1025V69.754ZM51.9818 76C50.5898 76 49.8938 75.268 49.8938 73.804V65.29C49.8938 63.814 50.5838 63.076 51.9638 63.076H53.6198C54.9998 63.076 55.6898 63.814 55.6898 65.29V73.804C55.6898 75.268 54.9938 76 53.6018 76H51.9818ZM52.3958 74.434H53.2778C53.7338 74.434 53.9618 74.182 53.9618 73.678V65.398C53.9618 64.894 53.7038 64.642 53.1878 64.642H52.3778C51.8738 64.642 51.6218 64.894 51.6218 65.398V73.678C51.6218 74.182 51.8798 74.434 52.3958 74.434ZM58.954 76H57.226V63.076H58.954V76ZM62.932 76H61.204L59.044 69.682V69.574L60.844 63.076H62.428L60.61 69.502L62.932 76ZM63.9233 76V63.076H68.2073V64.642H65.6513V68.566H67.9193V70.132H65.6513V74.434H68.2073V76H63.9233ZM69.4428 63.076H72.8268C74.1468 63.076 74.8068 63.814 74.8068 65.29V68.476C74.8068 69.604 74.4648 70.318 73.7808 70.618L74.9868 76H73.3488L72.2148 70.78H71.1708V76H69.4428V63.076ZM71.1708 69.304H72.3048C72.8208 69.304 73.0788 68.992 73.0788 68.368V65.578C73.0788 64.954 72.8208 64.642 72.3048 64.642H71.1708V69.304Z" fill="white" fill-opacity="0.2"/>
<path d="M63.7024 41.7886C64.0591 41.7892 64.4108 41.7042 64.7279 41.5407C64.7317 41.5917 64.7341 41.6498 64.7341 41.7162C64.7341 41.8962 64.6916 42.4835 64.1452 42.4835C64.0933 42.4835 63.6386 42.5001 63.6386 43.0818C63.6386 43.6636 64.0931 43.6802 64.1449 43.6802H67.1737C67.2255 43.6802 67.6802 43.6636 67.6802 43.0818C67.6802 42.7191 67.4254 42.5293 67.1737 42.5293C66.613 42.5293 66.5848 41.871 66.5848 41.7391C66.5848 41.6651 66.5876 41.6012 66.5922 41.546C67.6956 42.1106 69.0479 41.6738 69.6125 40.5703C70.1772 39.4668 69.7404 38.1146 68.6369 37.5499C68.4062 37.4319 68.1569 37.3547 67.8998 37.3217C67.8466 36.0845 66.8004 35.1246 65.5631 35.1779C64.4004 35.2279 63.4693 36.1591 63.4192 37.3217C62.1908 37.4783 61.3219 38.6011 61.4784 39.8297C61.6212 40.9494 62.574 41.7885 63.7027 41.7885L63.7024 41.7886ZM65.4995 42.6849C65.5675 42.5593 65.6204 42.4262 65.6571 42.2881C65.6921 42.4257 65.7428 42.5588 65.808 42.6849H65.4995ZM63.7024 38.2993C63.7645 38.2994 63.8267 38.304 63.8881 38.3132C64.1599 38.3537 64.4132 38.1663 64.4538 37.8944C64.4632 37.8318 64.4604 37.7679 64.4458 37.7063C64.2872 37.0361 64.702 36.3642 65.3721 36.2057C66.0423 36.0471 66.7142 36.4618 66.8728 37.132C66.9175 37.3207 66.9175 37.5174 66.8728 37.7063C66.8094 37.9738 66.9749 38.2419 67.2424 38.3052C67.304 38.3198 67.3678 38.3225 67.4305 38.3132C67.4919 38.304 67.5541 38.2994 67.6162 38.2993C68.3057 38.2996 68.8644 38.8588 68.8641 39.5483C68.8638 40.2378 68.3047 40.7965 67.6152 40.7962C67.2903 40.7961 66.9783 40.6693 66.7454 40.4428C66.5684 40.2696 66.291 40.253 66.0945 40.4036C66.015 40.466 65.9443 40.5389 65.8842 40.6202C65.7794 40.7609 65.7037 40.9212 65.6616 41.0917C65.6195 40.9168 65.5423 40.7524 65.4348 40.6082C65.3746 40.5292 65.304 40.4584 65.2251 40.398C65.0286 40.2472 64.7511 40.2639 64.5741 40.4371C64.082 40.9186 63.2927 40.9099 62.8113 40.4177C62.3298 39.9255 62.3385 39.1362 62.8307 38.6548C63.0638 38.4267 63.3771 38.2991 63.7033 38.2993H63.7024Z" fill="white" fill-opacity="0.2"/>
<path d="M42.5006 43.6802H43.7418V46.6789C43.7423 46.9473 43.9604 47.1645 44.2289 47.1639C44.232 47.1639 44.2352 47.1638 44.2384 47.1638H58.4279C60.3984 48.9812 62.9789 49.9933 65.6595 50C71.5464 50 76.3357 45.2142 76.3357 39.327C76.3399 33.4358 71.5677 28.6566 65.6765 28.6523C64.085 28.6512 62.5134 29.0062 61.077 29.6912V29.0774C61.0742 28.8025 60.8491 28.5818 60.5741 28.5845H59.3352V26.0962H60.5741C60.8489 26.0962 61.077 25.8318 61.077 25.5571V22.0367C61.0751 21.7598 60.851 21.5359 60.5741 21.5343H59.3352V19.046H60.5741C60.8559 19.0311 61.0768 18.7985 61.077 18.5163V14.996C61.0758 14.7173 60.8528 14.4902 60.5741 14.4841H59.3352V11.4757C59.3326 11.2105 59.1156 10.9976 58.8505 11.0001C58.8457 11.0001 58.8409 11.0002 58.8362 11.0004H42.5006C42.2348 10.9899 42.0109 11.1968 42.0003 11.4625C42.0002 11.4669 42.0001 11.4713 42 11.4756V14.9959C42.0027 15.2656 42.2234 15.4821 42.493 15.4795C42.4955 15.4795 42.4981 15.4794 42.5006 15.4793H43.7418V18.0506H42.5006C42.2258 18.0506 42 18.2414 42 18.5162V22.0366C42.0018 22.3106 42.2254 22.5314 42.4996 22.5295H42.5006H43.7418V25.1008H42.5006C42.2258 25.1008 42 25.2821 42 25.557V29.0773C42.0011 29.3536 42.2242 29.5777 42.5006 29.5797H43.7418V32.068H42.5006C42.2192 32.0829 41.999 32.3158 42 32.5975V36.1178C42.0003 36.3961 42.2224 36.6234 42.5006 36.6299H43.7418V39.1182H42.5006C42.221 39.1285 41.9997 39.3584 42 39.6382V43.1585C41.9995 43.4387 42.2206 43.6691 42.5006 43.6802ZM44.7371 43.6802H55.9C56.3042 44.581 56.8357 45.4189 57.4783 46.1685H44.7371V43.6802ZM58.4951 32.8259L60.0965 34.4272C58.9668 35.7039 58.3132 37.3319 58.2468 39.0354H55.9834C56.0518 36.7319 56.9429 34.529 58.4951 32.8259ZM65.6595 32.9064C69.2072 32.9065 72.0832 35.7825 72.0831 39.3302C72.083 42.878 69.207 45.754 65.6593 45.7539C62.1116 45.7538 59.2357 42.8778 59.2357 39.3301C59.2396 35.7841 62.1134 32.9104 65.6595 32.9064ZM60.7797 44.9137C61.9313 45.9242 63.3685 46.5519 64.8924 46.7098V48.9807C62.7676 48.8127 60.7583 47.9457 59.1783 46.515L60.7797 44.9137ZM65.8877 46.7454C67.6146 46.6935 69.2688 46.0381 70.5624 44.8931L72.1638 46.4945C70.4436 48.0623 68.2145 48.955 65.8877 49.0082V46.7454ZM71.2635 44.1867C72.2772 43.0216 72.9003 41.5682 73.0453 40.0307H75.3148C75.1608 42.1688 74.2988 44.1946 72.8649 45.788L71.2635 44.1867ZM73.0721 39.0354C73.0062 37.3426 72.3604 35.7238 71.2431 34.4504L72.8444 32.8491C74.3841 34.5493 75.2674 36.7426 75.3355 39.0354H73.0721ZM70.5392 33.7466C69.2487 32.614 67.604 31.9663 65.8877 31.9149V29.6521C68.2038 29.7051 70.4235 30.5901 72.1406 32.1453L70.5392 33.7466ZM64.8924 31.9506C63.379 32.1072 61.9508 32.727 60.8029 33.7256L59.2017 32.1246C60.7781 30.7059 62.7782 29.8465 64.8924 29.6793V31.9506ZM58.2735 40.0307C58.4197 41.5787 59.0503 43.0411 60.0757 44.2099L58.4744 45.8113C57.0285 44.2144 56.1588 42.1793 56.0041 40.0307H58.2735ZM42.9953 11.9958H58.3399V14.4841H42.9953V11.9958ZM44.7371 15.4794H60.0817V18.0507H44.7371V15.4794ZM42.9953 19.046H58.3399V21.5343H42.9953V19.046ZM44.7371 22.5296H60.0817V25.1009H44.7371V22.5296ZM42.9953 26.0962H58.3399V28.5845H42.9953V26.0962ZM44.7371 29.5798H60.0817V30.2338C59.2589 30.7584 58.4975 31.3737 57.8118 32.0681H44.7371V29.5798ZM42.9953 33.0634H56.9984C56.4468 33.8632 55.9935 34.7265 55.6484 35.6347H42.9953V33.0634ZM44.7371 36.63H55.3334C55.121 37.4431 55.0043 38.2782 54.9857 39.1183H44.7371V36.63ZM42.9953 40.1136H55.0138C55.077 40.9879 55.2457 41.8512 55.5162 42.6849H42.9953V40.1136Z" fill="white" fill-opacity="0.2"/>
</g>
<defs>
<filter id="filter0_d_100_1457" x="0" y="0" width="118" height="88" filterUnits="userSpaceOnUse" color-interpolation-filters="sRGB">
<feFlood flood-opacity="0" result="BackgroundImageFix"/>
<feColorMatrix in="SourceAlpha" type="matrix" values="0 0 0 0 0 0 0 0 0 0 0 0 0 0 0 0 0 0 127 0" result="hardAlpha"/>
<feOffset dy="4"/>
<feGaussianBlur stdDeviation="2"/>
<feComposite in2="hardAlpha" operator="out"/>
<feColorMatrix type="matrix" values="0 0 0 0 0 0 0 0 0 0 0 0 0 0 0 0 0 0 0.25 0"/>
<feBlend mode="normal" in2="BackgroundImageFix" result="effect1_dropShadow_100_1457"/>
<feBlend mode="normal" in="SourceGraphic" in2="effect1_dropShadow_100_1457" result="shape"/>
</filter>
<clipPath id="clip0_100_1457">
<rect width="110" height="80" fill="white" transform="translate(4)"/>
</clipPath>
</defs>
</svg>
