<svg width="110" height="80" viewBox="0 0 110 80" fill="none" xmlns="http://www.w3.org/2000/svg">
<g clip-path="url(#clip0_1833_1357)">
<path d="M1.21234 63.076H4.36234C5.75434 63.076 6.45034 63.814 6.45034 65.29V69.124C6.45034 70.588 5.76034 71.32 4.38034 71.32H2.94034V76H1.21234V63.076ZM2.94034 69.754H4.03834C4.49434 69.754 4.72234 69.502 4.72234 68.998V65.398C4.72234 64.894 4.46434 64.642 3.94834 64.642H2.94034V69.754ZM13.4377 63.076V73.552C13.4377 75.184 12.7417 76 11.3497 76H9.89172C8.51172 76 7.82172 75.178 7.82172 73.534V63.076H9.54972V73.588C9.54972 74.152 9.80172 74.434 10.3057 74.434H11.0077C11.4757 74.434 11.7097 74.152 11.7097 73.588V63.076H13.4377ZM15.0639 63.076H18.4479C19.7679 63.076 20.4279 63.814 20.4279 65.29V68.476C20.4279 69.604 20.0859 70.318 19.4019 70.618L20.6079 76H18.9699L17.8359 70.78H16.7919V76H15.0639V63.076ZM16.7919 69.304H17.9259C18.4419 69.304 18.6999 68.992 18.6999 68.368V65.578C18.6999 64.954 18.4419 64.642 17.9259 64.642H16.7919V69.304ZM21.8666 76V63.076H26.1506V64.642H23.5946V68.566H25.8626V70.132H23.5946V74.434H26.1506V76H21.8666ZM35.075 74.452V76H30.431V72.022C30.431 71.806 30.449 71.626 30.485 71.482C30.521 71.338 30.581 71.206 30.665 71.086C30.761 70.954 30.923 70.774 31.151 70.546L32.897 68.872C33.029 68.74 33.131 68.626 33.203 68.53C33.287 68.434 33.341 68.356 33.365 68.296C33.401 68.224 33.419 68.152 33.419 68.08C33.431 68.008 33.437 67.912 33.437 67.792V65.398C33.437 64.894 33.191 64.642 32.699 64.642H32.591C32.099 64.642 31.853 64.894 31.853 65.398V66.73H30.125V65.29C30.125 63.814 30.815 63.076 32.195 63.076H33.095C34.475 63.076 35.165 63.814 35.165 65.29V68.386C35.165 68.626 35.129 68.836 35.057 69.016C34.997 69.196 34.829 69.418 34.553 69.682L32.645 71.518C32.405 71.746 32.267 71.902 32.231 71.986C32.195 72.07 32.171 72.154 32.159 72.238C32.159 72.322 32.159 72.436 32.159 72.58V74.452H35.075ZM36.7695 65.938L36.3735 64.75C36.8175 64.582 37.1955 64.348 37.5075 64.048C37.8195 63.748 38.0655 63.424 38.2455 63.076H38.4255L39.5595 63.688V76H37.8495V65.614L36.7695 65.938ZM42.8389 73.804V76H41.0029V73.804H42.8389ZM44.1009 72.976H45.8289V73.678C45.8289 74.182 46.0569 74.434 46.5129 74.434H46.7109C47.2269 74.434 47.4849 74.182 47.4849 73.678V70.726C47.4849 70.162 47.2449 69.88 46.7649 69.88H44.1549V63.076H49.0329V64.678H45.7749V68.314H47.1429C48.5229 68.314 49.2129 69.076 49.2129 70.6V73.714C49.2129 75.238 48.5229 76 47.1429 76H46.1709C44.7909 76 44.1009 75.268 44.1009 73.804V72.976ZM57.6443 69.358C58.5923 69.622 59.0663 70.114 59.0663 70.834V74.074C59.0663 75.358 58.4123 76 57.1043 76H53.6303V63.076H56.5823C58.1183 63.076 58.8863 63.856 58.8863 65.416V67.9C58.8863 68.644 58.4723 69.1 57.6443 69.268V69.358ZM55.3583 74.434H56.6543C57.1103 74.434 57.3383 74.248 57.3383 73.876V71.014C57.3383 70.402 56.9963 70.096 56.3123 70.096H55.3583V74.434ZM55.3583 68.53H56.1683C56.8283 68.53 57.1583 68.218 57.1583 67.594V65.578C57.1583 64.954 56.9003 64.642 56.3843 64.642H55.3583V68.53ZM64.6074 76H60.5034V63.076H62.2314V74.434H64.6074V76ZM67.239 76H65.511V65.29C65.511 63.814 66.201 63.076 67.581 63.076H68.877C70.257 63.076 70.947 63.814 70.947 65.29V76H69.219V71.266H67.239V76ZM69.219 69.7V65.398C69.219 64.894 68.967 64.642 68.463 64.642H67.995C67.491 64.642 67.239 64.894 67.239 65.398V69.7H69.219ZM77.6401 72.976V73.804C77.6401 75.268 76.9501 76 75.5701 76H74.4541C73.0741 76 72.3841 75.268 72.3841 73.804V65.272C72.3841 63.808 73.0741 63.076 74.4541 63.076H75.5701C76.9501 63.076 77.6401 63.808 77.6401 65.272V66.73H75.9121V65.398C75.9121 64.894 75.6541 64.642 75.1381 64.642H74.7961C74.3401 64.642 74.1121 64.894 74.1121 65.398V73.678C74.1121 74.182 74.3401 74.434 74.7961 74.434H75.2281C75.6841 74.434 75.9121 74.182 75.9121 73.678V72.976H77.6401ZM80.7235 76H78.9955V63.076H80.7235V76ZM84.7015 76H82.9735L80.8135 69.682V69.574L82.6135 63.076H84.1975L82.3795 69.502L84.7015 76ZM85.0628 74.434H86.1968C86.7128 74.434 86.9708 74.122 86.9708 73.498V63.076H88.6988V73.822C88.6988 75.274 88.0328 76 86.7008 76H85.0628V74.434ZM91.9539 76H90.2259V65.29C90.2259 63.814 90.9159 63.076 92.2959 63.076H93.5919C94.9719 63.076 95.6619 63.814 95.6619 65.29V76H93.9339V71.266H91.9539V76ZM93.9339 69.7V65.398C93.9339 64.894 93.6819 64.642 93.1779 64.642H92.7099C92.2059 64.642 91.9539 64.894 91.9539 65.398V69.7H93.9339ZM102.355 72.976V73.804C102.355 75.268 101.665 76 100.285 76H99.1689C97.7889 76 97.0989 75.268 97.0989 73.804V65.272C97.0989 63.808 97.7889 63.076 99.1689 63.076H100.285C101.665 63.076 102.355 63.808 102.355 65.272V66.73H100.627V65.398C100.627 64.894 100.369 64.642 99.8529 64.642H99.5109C99.0549 64.642 98.8269 64.894 98.8269 65.398V73.678C98.8269 74.182 99.0549 74.434 99.5109 74.434H99.9429C100.399 74.434 100.627 74.182 100.627 73.678V72.976H102.355ZM105.438 76H103.71V63.076H105.438V76ZM109.416 76H107.688L105.528 69.682V69.574L107.328 63.076H108.912L107.094 69.502L109.416 76Z" fill="white" fill-opacity="0.2"/>
<path d="M74.6982 9H71.5203C71.1723 9 70.8904 9.28194 70.8904 9.62988C70.8904 9.97783 71.1723 10.2598 71.5203 10.2598H74.6982C74.7213 10.2598 74.7402 10.2787 74.7402 10.3018V42.2108C74.7402 42.2335 74.721 42.2528 74.6982 42.2528H71.7957V14.1079C71.7957 13.3901 71.2118 12.8062 70.494 12.8062H51.3573V10.3018C51.3573 10.279 51.3765 10.2598 51.3993 10.2598H68.5808C68.9288 10.2598 69.2107 9.97783 69.2107 9.62988C69.2107 9.28194 68.9288 9 68.5808 9H51.3993C50.6815 9 50.0975 9.58394 50.0975 10.3018V12.8062H47.195C46.4772 12.8062 45.8933 13.3901 45.8933 14.1079V24.5715C45.8933 24.9195 46.1753 25.2014 46.5232 25.2014C46.871 25.2014 47.153 24.9195 47.153 24.5715V14.1079C47.153 14.0848 47.1719 14.0659 47.195 14.0659H70.494C70.5171 14.0659 70.536 14.0848 70.536 14.1079V46.017C70.536 46.0401 70.5171 46.0589 70.494 46.0589H50.9432C51.3449 45.0215 51.5658 43.8947 51.5658 42.7171C51.5658 39.3834 49.7991 36.4551 47.153 34.8178V27.511C47.153 27.163 46.871 26.8811 46.5232 26.8811C46.1753 26.8811 45.8933 27.163 45.8933 27.511V34.1652C44.7829 33.6946 43.5627 33.4342 42.2829 33.4342C37.1643 33.4342 33 37.5985 33 42.7171C33 47.8357 37.1643 52 42.2829 52C45.7283 52 48.741 50.1132 50.3428 47.3187H70.494C71.2118 47.3187 71.7957 46.7348 71.7957 46.017V43.5125H74.6982C75.4161 43.5125 76 42.9286 76 42.2108V10.3018C76 9.58394 75.4161 9 74.6982 9ZM48.3811 47.9247L46.7883 46.3319C47.4607 45.4955 47.9056 44.4693 48.0279 43.3471H50.2814C50.1456 45.0866 49.4525 46.6719 48.3811 47.9247ZM34.2845 43.3471H36.5379C36.6601 44.4693 37.1051 45.4954 37.7775 46.3318L36.1847 47.9246C35.1133 46.6719 34.4202 45.0866 34.2845 43.3471ZM36.1845 37.5098L37.7773 39.1025C37.105 39.9389 36.66 40.9651 36.5378 42.0873H34.2844C34.4201 40.3478 35.1132 38.7626 36.1845 37.5098ZM47.4903 36.6188L45.8976 38.2116C45.0612 37.5392 44.0349 37.0943 42.9126 36.972V34.7186C44.6522 34.8544 46.2375 35.5475 47.4903 36.6188ZM50.2814 42.0873H48.0279C47.9057 40.9651 47.4608 39.9389 46.7884 39.1024L48.3812 37.5097C49.4525 38.7625 50.1457 40.3478 50.2814 42.0873ZM42.2839 47.2373C42.2835 47.2373 42.2831 47.2372 42.2828 47.2372C42.2825 47.2372 42.2821 47.2372 42.2817 47.2372C39.7901 47.2367 37.7633 45.2098 37.7627 42.7182C37.7627 42.7179 37.7628 42.7175 37.7628 42.7171C37.7628 42.7168 37.7627 42.7164 37.7627 42.716C37.7633 40.2255 39.7884 38.1994 42.2784 38.1969C42.2799 38.1969 42.2813 38.1971 42.2827 38.1971C42.2842 38.1971 42.2856 38.1969 42.2871 38.1968C44.7765 38.1992 46.8012 40.2242 46.8029 42.7138C46.8029 42.7149 46.8027 42.7159 46.8027 42.717C46.8027 42.7181 46.8029 42.7191 46.8029 42.7202C46.8012 45.211 44.7748 47.2367 42.2839 47.2373ZM41.6529 36.9721C40.5307 37.0944 39.5045 37.5392 38.6681 38.2117L37.0753 36.6189C38.3281 35.5475 39.9134 34.8544 41.6529 34.7187V36.9721ZM38.6682 47.2226C39.5046 47.895 40.5307 48.3399 41.6529 48.4622V50.7156C39.9134 50.5799 38.3282 49.8868 37.0754 48.8155L38.6682 47.2226ZM42.9127 48.4622C44.0349 48.34 45.0611 47.895 45.8975 47.2227L47.4902 48.8155C46.2374 49.8868 44.6522 50.5799 42.9127 50.7156V48.4622Z" fill="white" fill-opacity="0.2"/>
<path d="M51.7856 16.2116C51.7834 16.2059 51.7811 16.2 51.7787 16.1943C51.6666 15.9217 51.4039 15.7458 51.1092 15.7458C51.1089 15.7458 51.1087 15.7458 51.1084 15.7458C50.8135 15.7461 50.5507 15.9227 50.439 16.1957C50.4371 16.2005 50.4353 16.2051 50.4334 16.21L48.8742 20.304C48.7504 20.6291 48.9136 20.993 49.2386 21.1168C49.5636 21.2407 49.9275 21.0774 50.0514 20.7523L50.2852 20.1384H51.921L52.152 20.7506C52.2472 21.0028 52.4868 21.1582 52.7415 21.1582C52.8153 21.1582 52.8906 21.1451 52.9637 21.1175C53.2891 20.9947 53.4535 20.6313 53.3306 20.3058L51.7856 16.2116ZM50.7651 18.8787L51.1069 17.9812L51.4456 18.8787H50.7651Z" fill="white" fill-opacity="0.2"/>
<path d="M64.7255 39.0074C64.4 39.1302 64.2358 39.4936 64.3586 39.8191L65.9037 43.9133C65.9058 43.9189 65.9081 43.9247 65.9103 43.9303C66.0224 44.203 66.2852 44.3791 66.58 44.3791H66.5809C66.876 44.3788 67.1388 44.2021 67.2503 43.9289C67.2521 43.9242 67.254 43.9197 67.2558 43.9149L68.815 39.8208C68.9389 39.4958 68.7756 39.1319 68.4505 39.008C68.1258 38.8841 67.7616 39.0473 67.6377 39.3725L67.4039 39.9865H65.7681L65.5371 39.3743C65.4144 39.0489 65.051 38.8847 64.7255 39.0074ZM66.9242 41.2461L66.5824 42.1437L66.2437 41.2461H66.9242Z" fill="white" fill-opacity="0.2"/>
<path d="M59.0681 25.2769L58.8446 25.5004L58.6211 25.2769C57.8987 24.5545 56.9384 24.1567 55.9169 24.1567C54.8953 24.1567 53.9348 24.5545 53.2125 25.2769C52.4901 25.9993 52.0923 26.9597 52.0923 27.9812C52.0923 29.0027 52.4901 29.9632 53.2125 30.6855L58.248 35.7212C58.4125 35.8856 58.6285 35.9679 58.8446 35.9679C59.0607 35.9679 59.2767 35.8857 59.4413 35.7212L64.4769 30.6855C65.968 29.1943 65.968 26.768 64.4769 25.2769C63.7544 24.5545 62.7941 24.1567 61.7725 24.1567C60.7509 24.1567 59.7905 24.5545 59.0681 25.2769ZM63.586 29.7947L58.8446 34.5361L54.1032 29.7947C53.6188 29.3103 53.3521 28.6662 53.3521 27.9812C53.3521 27.2962 53.6188 26.6521 54.1033 26.1676C54.5877 25.6832 55.2318 25.4164 55.9169 25.4164C56.6018 25.4164 57.2459 25.6833 57.7303 26.1677L58.3115 26.7488C58.6055 27.0423 59.0839 27.0421 59.3783 26.7484L59.959 26.1676C60.4434 25.6832 61.0875 25.4164 61.7725 25.4164C62.4576 25.4164 63.1016 25.6833 63.5861 26.1676V26.1677C64.586 27.1676 64.586 28.7947 63.586 29.7947Z" fill="white" fill-opacity="0.2"/>
</g>
<defs>
<clipPath id="clip0_1833_1357">
<rect width="110" height="80" fill="white"/>
</clipPath>
</defs>
</svg>
