<svg width="110" height="80" viewBox="0 0 110 80" fill="none" xmlns="http://www.w3.org/2000/svg">
<g clip-path="url(#clip0_1865_2284)">
<path d="M33.4568 69.358C34.4048 69.622 34.8788 70.114 34.8788 70.834V74.074C34.8788 75.358 34.2248 76 32.9168 76H29.4428V63.076H32.3948C33.9308 63.076 34.6988 63.856 34.6988 65.416V67.9C34.6988 68.644 34.2848 69.1 33.4568 69.268V69.358ZM31.1708 74.434H32.4668C32.9228 74.434 33.1508 74.248 33.1508 73.876V71.014C33.1508 70.402 32.8088 70.096 32.1248 70.096H31.1708V74.434ZM31.1708 68.53H31.9808C32.6408 68.53 32.9708 68.218 32.9708 67.594V65.578C32.9708 64.954 32.7128 64.642 32.1968 64.642H31.1708V68.53ZM37.9539 76H36.2259V65.29C36.2259 63.814 36.9159 63.076 38.2959 63.076H39.5919C40.9719 63.076 41.6619 63.814 41.6619 65.29V76H39.9339V71.266H37.9539V76ZM39.9339 69.7V65.398C39.9339 64.894 39.6819 64.642 39.1779 64.642H38.7099C38.2059 64.642 37.9539 64.894 37.9539 65.398V69.7H39.9339ZM48.3549 72.976V73.804C48.3549 75.268 47.6649 76 46.2849 76H45.1689C43.7889 76 43.0989 75.268 43.0989 73.804V65.272C43.0989 63.808 43.7889 63.076 45.1689 63.076H46.2849C47.6649 63.076 48.3549 63.808 48.3549 65.272V66.73H46.6269V65.398C46.6269 64.894 46.3689 64.642 45.8529 64.642H45.5109C45.0549 64.642 44.8269 64.894 44.8269 65.398V73.678C44.8269 74.182 45.0549 74.434 45.5109 74.434H45.9429C46.3989 74.434 46.6269 74.182 46.6269 73.678V72.976H48.3549ZM54.8764 72.976V73.804C54.8764 75.268 54.1864 76 52.8064 76H51.6904C50.3104 76 49.6204 75.268 49.6204 73.804V65.272C49.6204 63.808 50.3104 63.076 51.6904 63.076H52.8064C54.1864 63.076 54.8764 63.808 54.8764 65.272V66.73H53.1484V65.398C53.1484 64.894 52.8904 64.642 52.3744 64.642H52.0324C51.5764 64.642 51.3484 64.894 51.3484 65.398V73.678C51.3484 74.182 51.5764 74.434 52.0324 74.434H52.4644C52.9204 74.434 53.1484 74.182 53.1484 73.678V72.976H54.8764ZM57.8699 76H56.1419V65.29C56.1419 63.814 56.8319 63.076 58.2119 63.076H59.5079C60.8879 63.076 61.5779 63.814 61.5779 65.29V76H59.8499V71.266H57.8699V76ZM59.8499 69.7V65.398C59.8499 64.894 59.5979 64.642 59.0939 64.642H58.6259C58.1219 64.642 57.8699 64.894 57.8699 65.398V69.7H59.8499ZM63.1049 63.076H66.4889C67.8089 63.076 68.4689 63.814 68.4689 65.29V68.476C68.4689 69.604 68.1269 70.318 67.4429 70.618L68.6489 76H67.0109L65.8769 70.78H64.8329V76H63.1049V63.076ZM64.8329 69.304H65.9669C66.4829 69.304 66.7409 68.992 66.7409 68.368V65.578C66.7409 64.954 66.4829 64.642 65.9669 64.642H64.8329V69.304ZM71.5457 76H69.8177V65.29C69.8177 63.814 70.5077 63.076 71.8877 63.076H73.1837C74.5637 63.076 75.2537 63.814 75.2537 65.29V76H73.5257V71.266H71.5457V76ZM73.5257 69.7V65.398C73.5257 64.894 73.2737 64.642 72.7697 64.642H72.3017C71.7977 64.642 71.5457 64.894 71.5457 65.398V69.7H73.5257ZM79.5347 64.642V76H77.8067V64.642H76.1507V63.076H81.1907V64.642H79.5347Z" fill="white" fill-opacity="0.2"/>
<path d="M74.5072 12H69.9001C69.5675 12 69.2979 12.2695 69.2979 12.6022C69.2979 12.9348 69.5675 13.2044 69.9001 13.2044H73.905V23.3588L73.9001 24.5256C73.8806 29.4779 71.9924 34.1817 68.5836 37.7707C68.3544 38.0118 68.3644 38.3929 68.6054 38.622C68.7219 38.7327 68.8711 38.7877 69.02 38.7877C69.1793 38.7877 69.3384 38.7249 69.4567 38.6002C73.078 34.7877 75.0837 29.7909 75.1044 24.5306L75.1094 23.3613V12.6022C75.1094 12.2695 74.8398 12 74.5072 12Z" fill="white" fill-opacity="0.2"/>
<path d="M34.6022 14.96C34.9348 14.96 35.2044 14.6905 35.2044 14.3579V13.2044H47.1077V19.9891C47.1077 20.3217 47.3772 20.5912 47.7099 20.5912H62.042C62.3746 20.5912 62.6442 20.3217 62.6442 19.9891V13.2044H67.331C67.6636 13.2044 67.9332 12.9348 67.9332 12.6022C67.9332 12.2695 67.6636 12 67.331 12H34.6022C34.2695 12 34 12.2695 34 12.6022V14.3579C34 14.6905 34.2695 14.96 34.6022 14.96ZM61.4398 13.2044V19.3869H48.312V13.2044H61.4398Z" fill="white" fill-opacity="0.2"/>
<path d="M66.7564 39.463C63.3231 42.2569 58.9898 43.7956 54.5547 43.7956C49.4017 43.7956 44.5532 41.7928 40.9022 38.1562C37.2513 34.5195 35.2296 29.6787 35.2093 24.5255L35.2044 23.3613V16.9234C35.2044 16.5908 34.9348 16.3212 34.6022 16.3212C34.2695 16.3212 34 16.5908 34 16.9234V23.3638L34.0049 24.5303C34.0265 30.0042 36.1741 35.1463 40.0522 39.0093C43.9305 42.8725 49.0808 45 54.5547 45C59.266 45 63.8692 43.3653 67.5167 40.3972C67.7746 40.1873 67.8135 39.8079 67.6036 39.5499C67.3938 39.2921 67.0145 39.253 66.7564 39.463Z" fill="white" fill-opacity="0.2"/>
<path d="M52.6852 31.3878C52.3525 31.3878 52.083 31.6573 52.083 31.9899V38.836C52.083 39.1686 52.3525 39.4382 52.6852 39.4382H57.0666C57.3992 39.4382 57.6688 39.1686 57.6688 38.836V31.9899C57.6688 31.6573 57.3992 31.3878 57.0666 31.3878H52.6852ZM56.4644 38.2337H53.2874V32.5921H56.4644V38.2337Z" fill="white" fill-opacity="0.2"/>
<path d="M47.7134 26.9117L46.0346 22.8647C45.9072 22.5575 45.5549 22.4116 45.2476 22.5391L38.924 25.1622C38.617 25.2897 38.4712 25.642 38.5985 25.9492L40.2773 29.9963C40.4042 30.3022 40.7559 30.4497 41.0643 30.3218L47.3879 27.6987C47.6949 27.5712 47.8407 27.2189 47.7134 26.9117ZM41.1591 28.9785L39.9418 26.0439L45.1529 23.8824L46.3701 26.8169L41.1591 28.9785Z" fill="white" fill-opacity="0.2"/>
<path d="M43.309 34.4272L46.7695 37.1146C47.0329 37.3189 47.4109 37.2704 47.6145 37.0083L51.8134 31.6012C52.0174 31.3385 51.9698 30.9603 51.7072 30.7562L48.2467 28.0689C47.9845 27.8655 47.6062 27.912 47.4017 28.1752L43.2028 33.5823C42.9988 33.8449 43.0463 34.2232 43.309 34.4272ZM47.9836 29.3894L50.4929 31.3381L47.0326 35.794L44.5233 33.8453L47.9836 29.3894Z" fill="white" fill-opacity="0.2"/>
<path d="M69.4746 29.9963L71.1533 25.9492C71.2806 25.6421 71.135 25.2898 70.8278 25.1622L64.5042 22.5392C64.1968 22.4117 63.8446 22.5575 63.7172 22.8647L62.0385 26.9117C61.9112 27.2188 62.0568 27.5711 62.364 27.6987L68.6875 30.3218C68.9942 30.4487 69.3468 30.3042 69.4746 29.9963ZM63.3818 26.8169L64.5991 23.8824L69.8101 26.0439L68.5929 28.9785L63.3818 26.8169Z" fill="white" fill-opacity="0.2"/>
<path d="M62.1373 37.0082C62.341 37.2704 62.7189 37.3188 62.9823 37.1145L66.4428 34.4271C66.7054 34.2231 66.753 33.8449 66.549 33.5822L62.3501 28.1751C62.1457 27.9121 61.7674 27.8653 61.5051 28.0688L58.0446 30.7562C57.7819 30.9602 57.7344 31.3385 57.9384 31.6011L62.1373 37.0082ZM61.7682 29.3894L65.2285 33.8453L62.7192 35.794L59.2589 31.3381L61.7682 29.3894Z" fill="white" fill-opacity="0.2"/>
<path d="M61.0985 22.8394C61.0985 22.5068 60.829 22.2372 60.4964 22.2372C60.1637 22.2372 59.8942 22.5068 59.8942 22.8394C59.8942 25.6286 57.625 27.8978 54.8358 27.8978C52.0466 27.8978 49.7774 25.6286 49.7774 22.8394C49.7774 22.5068 49.5078 22.2372 49.1752 22.2372C48.8425 22.2372 48.573 22.5068 48.573 22.8394C48.573 26.2928 51.3824 29.1022 54.8358 29.1022C58.2891 29.1022 61.0985 26.2928 61.0985 22.8394Z" fill="white" fill-opacity="0.2"/>
<path d="M51.9453 18.7044C52.4975 18.7044 53.0059 18.5106 53.4091 18.1872C53.8216 18.518 54.3359 18.7044 54.876 18.7044C55.4154 18.7044 55.929 18.5185 56.3413 18.1883C56.7536 18.5184 57.2673 18.7044 57.8067 18.7044C59.1128 18.7044 60.1753 17.6238 60.1753 16.2956C60.1753 14.9674 59.1128 13.8868 57.8067 13.8868C57.2672 13.8868 56.7536 14.0727 56.3413 14.4028C55.929 14.0727 55.4155 13.8868 54.876 13.8868C54.3359 13.8868 53.8216 14.0732 53.4091 14.404C53.0059 14.0806 52.4975 13.8868 51.9453 13.8868C50.6392 13.8868 49.5767 14.9674 49.5767 16.2956C49.5767 17.6238 50.6392 18.7044 51.9453 18.7044ZM58.9709 16.2956C58.9709 16.9597 58.4486 17.5 57.8067 17.5C57.5313 17.5 57.2691 17.3989 57.0622 17.2211C57.1814 16.9298 57.2446 16.6168 57.2446 16.2956C57.2446 15.9745 57.1814 15.6614 57.0622 15.3701C57.2691 15.1923 57.5313 15.0912 57.8067 15.0912C58.4486 15.0912 58.9709 15.6315 58.9709 16.2956ZM56.0402 16.2956C56.0402 16.9631 55.5183 17.5 54.876 17.5C54.6008 17.5 54.3386 17.399 54.1317 17.2213C54.2489 16.9361 54.3139 16.6235 54.3139 16.2956C54.3139 15.9677 54.2489 15.6551 54.1317 15.3699C54.3386 15.1922 54.6008 15.0912 54.876 15.0912C55.5173 15.0912 56.0402 15.6272 56.0402 16.2956ZM51.9453 15.0912C52.5872 15.0912 53.1095 15.6315 53.1095 16.2956C53.1095 16.9597 52.5872 17.5 51.9453 17.5C51.3033 17.5 50.781 16.9597 50.781 16.2956C50.781 15.6315 51.3033 15.0912 51.9453 15.0912Z" fill="white" fill-opacity="0.2"/>
</g>
<defs>
<clipPath id="clip0_1865_2284">
<rect width="110" height="80" fill="white"/>
</clipPath>
</defs>
</svg>
