<svg width="110" height="80" viewBox="0 0 110 80" fill="none" xmlns="http://www.w3.org/2000/svg">
<g clip-path="url(#clip0_1865_2303)">
<path d="M6.07593 76H4.34793V65.29C4.34793 63.814 5.03793 63.076 6.41793 63.076H7.71393C9.09393 63.076 9.78393 63.814 9.78393 65.29V76H8.05593V71.266H6.07593V76ZM8.05593 69.7V65.398C8.05593 64.894 7.80393 64.642 7.29993 64.642H6.83193C6.32793 64.642 6.07593 64.894 6.07593 65.398V69.7H8.05593ZM13.039 76H11.311V63.076H13.039V76ZM17.017 76H15.289L13.129 69.682V69.574L14.929 63.076H16.513L14.695 69.502L17.017 76ZM19.6462 76H17.9182V65.29C17.9182 63.814 18.6082 63.076 19.9882 63.076H21.2842C22.6642 63.076 23.3542 63.814 23.3542 65.29V76H21.6262V71.266H19.6462V76ZM21.6262 69.7V65.398C21.6262 64.894 21.3742 64.642 20.8702 64.642H20.4022C19.8982 64.642 19.6462 64.894 19.6462 65.398V69.7H21.6262ZM27.7641 63.076H30.9141C32.3061 63.076 33.0021 63.814 33.0021 65.29V69.124C33.0021 70.588 32.3121 71.32 30.9321 71.32H29.4921V76H27.7641V63.076ZM29.4921 69.754H30.5901C31.0461 69.754 31.2741 69.502 31.2741 68.998V65.398C31.2741 64.894 31.0161 64.642 30.5001 64.642H29.4921V69.754ZM36.0115 76H34.2835V65.29C34.2835 63.814 34.9735 63.076 36.3535 63.076H37.6495C39.0295 63.076 39.7195 63.814 39.7195 65.29V76H37.9915V71.266H36.0115V76ZM37.9915 69.7V65.398C37.9915 64.894 37.7395 64.642 37.2355 64.642H36.7675C36.2635 64.642 36.0115 64.894 36.0115 65.398V69.7H37.9915ZM41.2465 76V63.076H42.9745V76H41.2465ZM50.1332 71.266V69.7H52.7612V76H49.3772C48.0452 76 47.3792 75.274 47.3792 73.822V65.29C47.3792 63.814 48.0452 63.076 49.3772 63.076H50.5652C52.0292 63.076 52.7612 63.826 52.7612 65.326V66.73H51.0332V65.578C51.0332 64.954 50.7872 64.642 50.2952 64.642H49.8632C49.3592 64.642 49.1072 64.954 49.1072 65.578V73.498C49.1072 74.122 49.3592 74.434 49.8632 74.434H51.0332V71.266H50.1332ZM56.1644 76C54.7724 76 54.0764 75.268 54.0764 73.804V65.29C54.0764 63.814 54.7664 63.076 56.1464 63.076H57.8024C59.1824 63.076 59.8724 63.814 59.8724 65.29V73.804C59.8724 75.268 59.1764 76 57.7844 76H56.1644ZM56.5784 74.434H57.4604C57.9164 74.434 58.1444 74.182 58.1444 73.678V65.398C58.1444 64.894 57.8864 64.642 57.3704 64.642H56.5604C56.0564 64.642 55.8044 64.894 55.8044 65.398V73.678C55.8044 74.182 56.0624 74.434 56.5784 74.434ZM70.4446 63.076L68.5366 76H66.6646L65.6026 68.512L64.5586 76H62.6866L60.7786 63.076H62.4886L63.7126 72.76L64.9366 63.076H66.2866L67.5106 72.76L68.7346 63.076H70.4446ZM74.311 63.076H77.461C78.853 63.076 79.549 63.814 79.549 65.29V69.124C79.549 70.588 78.859 71.32 77.479 71.32H76.039V76H74.311V63.076ZM76.039 69.754H77.137C77.593 69.754 77.821 69.502 77.821 68.998V65.398C77.821 64.894 77.563 64.642 77.047 64.642H76.039V69.754ZM82.9184 76C81.5264 76 80.8304 75.268 80.8304 73.804V65.29C80.8304 63.814 81.5204 63.076 82.9004 63.076H84.5564C85.9364 63.076 86.6264 63.814 86.6264 65.29V73.804C86.6264 75.268 85.9304 76 84.5384 76H82.9184ZM83.3324 74.434H84.2144C84.6704 74.434 84.8984 74.182 84.8984 73.678V65.398C84.8984 64.894 84.6404 64.642 84.1244 64.642H83.3144C82.8104 64.642 82.5584 64.894 82.5584 65.398V73.678C82.5584 74.182 82.8164 74.434 83.3324 74.434ZM89.8905 76H88.1625V63.076H89.8905V76ZM93.8685 76H92.1405L89.9805 69.682V69.574L91.7805 63.076H93.3645L91.5465 69.502L93.8685 76ZM94.8598 76V63.076H99.1438V64.642H96.5878V68.566H98.8558V70.132H96.5878V74.434H99.1438V76H94.8598ZM100.379 63.076H103.763C105.083 63.076 105.743 63.814 105.743 65.29V68.476C105.743 69.604 105.401 70.318 104.717 70.618L105.923 76H104.285L103.151 70.78H102.107V76H100.379V63.076ZM102.107 69.304H103.241C103.757 69.304 104.015 68.992 104.015 68.368V65.578C104.015 64.954 103.757 64.642 103.241 64.642H102.107V69.304Z" fill="white" fill-opacity="0.2"/>
<path d="M75.108 44.942L70.3822 18.1413C70.1515 16.8346 68.9002 15.9582 67.5925 16.1879L62.4749 17.0903L62.8331 15.0584C63.0638 13.7507 62.1875 12.4994 60.8798 12.2687L42.5522 9.03712C41.9187 8.92561 41.2798 9.06724 40.7527 9.43606C40.2259 9.80488 39.874 10.357 39.7622 10.9905L38.2613 19.5044C38.2023 19.8389 38.4257 20.1581 38.7602 20.2171C39.0948 20.276 39.4139 20.0527 39.4729 19.7178L40.9741 11.2042C41.0289 10.8944 41.2006 10.6246 41.4583 10.4438C41.7162 10.2634 42.0286 10.1942 42.3385 10.249L60.666 13.4806C61.3056 13.5934 61.734 14.2054 61.6212 14.845L61.115 17.717C61.1114 17.7337 61.1082 17.7507 61.106 17.768L56.8958 41.6451C56.783 42.2847 56.1697 42.7128 55.5314 42.6003L37.2039 39.3687C36.5643 39.2559 36.1359 38.6439 36.2487 38.0043L39.039 22.1788C39.098 21.8442 38.8746 21.5251 38.5401 21.4661C38.2059 21.4071 37.8861 21.6305 37.8271 21.9653L35.0368 37.7906C34.8064 39.0983 35.6825 40.3499 36.9901 40.5803L55.3177 43.8122C55.4587 43.8369 55.5987 43.849 55.7371 43.849C56.8833 43.8487 57.902 43.0255 58.1077 41.8585L58.8562 37.6128C58.9299 37.6182 59.0036 37.6208 59.0776 37.6208C59.2603 37.6208 59.4442 37.6044 59.6285 37.5721C60.2104 37.4695 60.7362 37.2116 61.1601 36.838L61.5155 38.8522L60.229 39.0791C59.8944 39.138 59.6708 39.4572 59.73 39.7917C59.7826 40.09 60.0422 40.3002 60.335 40.3002C60.3706 40.3002 60.4065 40.297 60.4427 40.2906L62.3345 39.9571H62.3352H62.3355L64.2273 39.6235C64.5619 39.5645 64.7852 39.2454 64.7263 38.9108C64.6673 38.576 64.3481 38.353 64.0136 38.4116L62.7274 38.6385L62.372 36.6242C62.8982 36.8299 63.4804 36.8931 64.0626 36.7905C65.767 36.49 66.9094 34.8586 66.6091 33.1542C66.4636 32.3285 66.0051 31.6091 65.3181 31.1281C64.8493 30.8 64.3123 30.61 63.7566 30.5683C63.7813 30.2937 63.7694 30.0159 63.7211 29.7416C63.6124 29.1222 63.3244 28.5563 62.8879 28.1049C62.6514 27.8607 62.2621 27.8543 62.0179 28.0904C61.7738 28.3266 61.767 28.7162 62.0032 28.9604C62.2682 29.2344 62.4432 29.5779 62.5092 29.955C62.572 30.3094 62.5338 30.6722 62.3983 31.0045C62.3118 31.2169 62.3506 31.4598 62.4992 31.6348C62.6476 31.8097 62.8812 31.8876 63.1049 31.8363C63.1308 31.8305 63.158 31.8251 63.1866 31.8203C63.6887 31.7318 64.195 31.844 64.6125 32.1362C65.0303 32.4285 65.3088 32.8662 65.3972 33.368C65.5799 34.4043 64.8855 35.396 63.8489 35.5787C63.1414 35.7036 62.4342 35.4264 61.9987 34.8558C61.8648 34.6699 61.6325 34.5664 61.3921 34.609C61.1521 34.6513 60.9695 34.8269 60.907 35.0467C60.6936 35.7328 60.1229 36.2355 59.4157 36.3605C59.3007 36.3807 59.186 36.3903 59.0722 36.39L62.2477 18.38L67.8063 17.4001C68.4458 17.2877 69.0579 17.7161 69.1707 18.3553L73.8964 45.1555C74.0089 45.795 73.5805 46.4071 72.9412 46.5202L54.6137 49.7514C54.3038 49.8059 53.9911 49.7367 53.7334 49.5563C53.4755 49.3759 53.3034 49.1058 53.2486 48.7959L52.5539 44.852C52.495 44.5175 52.1758 44.2935 51.8413 44.3528C51.5064 44.4117 51.2831 44.7309 51.3421 45.0654L52.0368 49.0096C52.2431 50.1767 53.2615 51.0002 54.4073 50.9998C54.5457 50.9998 54.6864 50.988 54.8274 50.963L73.1549 47.7317C74.4617 47.501 75.3381 46.2494 75.108 44.942Z" fill="white" fill-opacity="0.2"/>
<path d="M69.7677 44.943C69.9952 44.9991 70.3073 44.9559 70.5229 44.8017C70.6261 44.7277 70.6831 44.6393 70.6937 44.5358L71.2715 39.869C71.2743 39.8295 71.275 39.8055 71.2734 39.7962C71.2551 39.6927 71.176 39.6149 71.0359 39.562C70.8962 39.5094 70.7604 39.4947 70.629 39.5178C70.4553 39.5482 70.363 39.6273 70.3518 39.7552L70.2493 40.7386L68.7413 41.0046L68.3138 40.1141C68.2552 39.9991 68.1283 39.9587 67.9328 39.9933C67.7794 40.0202 67.6397 40.0849 67.514 40.1871C67.3884 40.2897 67.3356 40.3983 67.3557 40.5137C67.3577 40.5239 67.367 40.548 67.3833 40.5864C69.7 45.0116 69.4437 44.8636 69.7677 44.943ZM70.2858 41.4724L70.0548 43.7411L69.0688 41.6871L70.2858 41.4724Z" fill="white" fill-opacity="0.2"/>
<path d="M44.7834 13.0663C44.7725 12.9628 44.7158 12.874 44.6126 12.8003C44.5094 12.7266 44.3873 12.6773 44.2466 12.6523C44.106 12.6276 43.9762 12.6295 43.8573 12.659C43.7384 12.6882 43.657 12.7446 43.6135 12.8282L41.473 17.0153C41.4566 17.0538 41.4473 17.0781 41.4457 17.088C41.4252 17.2034 41.4778 17.3123 41.6037 17.4146C41.7293 17.5171 41.869 17.5818 42.0222 17.6087C42.2176 17.643 42.3449 17.603 42.4035 17.4876L42.8306 16.5975L44.3389 16.8631L44.4411 17.8465C44.4524 17.9744 44.545 18.0535 44.7186 18.084C44.85 18.1073 44.9856 18.0926 45.1256 18.0397C45.2656 17.9872 45.3445 17.909 45.3627 17.8058C45.3646 17.7965 45.364 17.7722 45.3611 17.7328L44.7834 13.0663ZM43.1584 15.9149L44.1444 13.8606L44.3758 16.1296L43.1584 15.9149Z" fill="white" fill-opacity="0.2"/>
<path d="M53.3736 34.9989C53.3582 34.8708 53.2524 34.7894 53.057 34.7548C52.9035 34.7279 52.7503 34.741 52.5971 34.7942C52.444 34.8471 52.3571 34.9317 52.337 35.047C52.335 35.0569 52.3354 35.0829 52.3376 35.1246L52.9169 39.791C52.9294 39.8849 52.9865 39.9657 53.0884 40.0339C53.3893 40.2355 53.9523 40.2666 54.0977 39.9676L56.237 35.7802C56.253 35.744 56.2616 35.7215 56.2632 35.7122C56.2815 35.6087 56.2341 35.5084 56.1206 35.411C56.0069 35.3136 55.8845 35.2534 55.7531 35.2303C55.5798 35.1995 55.4654 35.2425 55.4112 35.3588L54.9786 36.2477L53.4707 35.9817L53.3736 34.9989ZM54.7623 36.9498L53.769 39.0025L53.5453 36.7351L54.7623 36.9498Z" fill="white" fill-opacity="0.2"/>
<path d="M65.3784 12.5029C65.4751 12.7423 65.7055 12.8878 65.9491 12.8878C66.0256 12.8878 66.1038 12.8734 66.1791 12.8429C66.4944 12.7157 66.6466 12.3568 66.5194 12.0418L65.6389 9.86256C65.5113 9.54758 65.1534 9.39537 64.8378 9.52258C64.5228 9.6498 64.3706 10.0087 64.4978 10.3237L65.3784 12.5029Z" fill="white" fill-opacity="0.2"/>
<path d="M69.3755 12.8708C69.454 12.9041 69.5354 12.9198 69.6155 12.9198C69.8552 12.9198 70.0827 12.7791 70.1821 12.5449L71.1008 10.381C71.2334 10.0683 71.0876 9.70714 70.7746 9.57448C70.4618 9.44182 70.1007 9.58762 69.968 9.90036L69.0497 12.0639C68.9167 12.3767 69.0628 12.7378 69.3755 12.8708Z" fill="white" fill-opacity="0.2"/>
<path d="M72.1864 15.5355C72.2633 15.5355 72.3412 15.5208 72.4168 15.4904L74.5961 14.6098C74.9111 14.4826 75.0633 14.124 74.9361 13.809C74.8089 13.494 74.4506 13.3418 74.135 13.4691L71.9557 14.3496C71.6407 14.4768 71.4885 14.8354 71.6157 15.1504C71.7125 15.3901 71.9429 15.5355 72.1864 15.5355Z" fill="white" fill-opacity="0.2"/>
<path d="M52.3952 21.9541C51.4916 21.6645 50.4835 21.7865 49.6703 22.255C49.0662 21.5363 48.1604 21.0771 47.2122 21.0403C46.1967 21.0012 45.1976 21.4398 44.5417 22.2137C43.8217 23.0635 43.5349 24.3141 43.7752 25.5593C43.9579 26.5062 44.4241 27.4627 45.2012 28.4836C45.5709 28.9697 46.0324 29.4206 46.4787 29.8567C46.9283 30.2957 47.3529 30.7103 47.6739 31.1423C47.7944 31.3041 47.98 31.3903 48.1684 31.3903C48.2847 31.3903 48.4023 31.3576 48.5061 31.289C48.9557 30.993 49.4966 30.7485 50.0692 30.4895C50.6377 30.2326 51.2253 29.9669 51.7393 29.6366C52.8185 28.9428 53.584 28.2036 54.0794 27.3762C54.7312 26.2883 54.8895 25.0152 54.5034 23.9703C54.1519 23.0186 53.3636 22.265 52.3952 21.9541ZM53.0239 26.744C52.6279 27.405 51.9902 28.0126 51.0741 28.6012C50.636 28.8829 50.1144 29.1187 49.5623 29.3683C49.1425 29.558 48.7128 29.7522 48.3091 29.9743C48.0053 29.6276 47.6679 29.2982 47.3385 28.9761C46.9049 28.5528 46.4954 28.1526 46.1801 27.7386C45.5206 26.8722 45.1291 26.0829 44.9833 25.3261C44.8131 24.4436 44.9986 23.5775 45.4803 23.0093C45.8712 22.5479 46.4816 22.2685 47.0892 22.2685C47.1142 22.2685 47.1395 22.2688 47.1648 22.2698C47.905 22.2986 48.6308 22.7562 48.9714 23.4086C49.0598 23.5778 49.222 23.6967 49.4101 23.7297C49.5982 23.763 49.7911 23.7069 49.9321 23.5778C50.4752 23.0811 51.3141 22.8997 52.019 23.126C52.6211 23.3189 53.131 23.8059 53.3492 24.3968C53.6074 25.0954 53.4857 25.973 53.0239 26.744Z" fill="white" fill-opacity="0.2"/>
</g>
<defs>
<clipPath id="clip0_1865_2303">
<rect width="110" height="80" fill="white"/>
</clipPath>
</defs>
</svg>
