<svg width="110" height="80" viewBox="0 0 110 80" fill="none" xmlns="http://www.w3.org/2000/svg">
<g clip-path="url(#clip0_1865_2326)">
<path d="M19.6166 63.076H22.7666C24.1586 63.076 24.8546 63.814 24.8546 65.29V69.124C24.8546 70.588 24.1646 71.32 22.7846 71.32H21.3446V76H19.6166V63.076ZM21.3446 69.754H22.4426C22.8986 69.754 23.1266 69.502 23.1266 68.998V65.398C23.1266 64.894 22.8686 64.642 22.3526 64.642H21.3446V69.754ZM27.864 76H26.136V65.29C26.136 63.814 26.826 63.076 28.206 63.076H29.502C30.882 63.076 31.572 63.814 31.572 65.29V76H29.844V71.266H27.864V76ZM29.844 69.7V65.398C29.844 64.894 29.592 64.642 29.088 64.642H28.62C28.116 64.642 27.864 64.894 27.864 65.398V69.7H29.844ZM33.0991 76V63.076H34.8271V76H33.0991ZM41.9857 71.266V69.7H44.6137V76H41.2297C39.8977 76 39.2317 75.274 39.2317 73.822V65.29C39.2317 63.814 39.8977 63.076 41.2297 63.076H42.4177C43.8817 63.076 44.6137 63.826 44.6137 65.326V66.73H42.8857V65.578C42.8857 64.954 42.6397 64.642 42.1477 64.642H41.7157C41.2117 64.642 40.9597 64.954 40.9597 65.578V73.498C40.9597 74.122 41.2117 74.434 41.7157 74.434H42.8857V71.266H41.9857ZM48.017 76C46.625 76 45.929 75.268 45.929 73.804V65.29C45.929 63.814 46.619 63.076 47.999 63.076H49.655C51.035 63.076 51.725 63.814 51.725 65.29V73.804C51.725 75.268 51.029 76 49.637 76H48.017ZM48.431 74.434H49.313C49.769 74.434 49.997 74.182 49.997 73.678V65.398C49.997 64.894 49.739 64.642 49.223 64.642H48.413C47.909 64.642 47.657 64.894 47.657 65.398V73.678C47.657 74.182 47.915 74.434 48.431 74.434ZM62.2972 63.076L60.3892 76H58.5172L57.4552 68.512L56.4112 76H54.5392L52.6312 63.076H54.3412L55.5652 72.76L56.7892 63.076H58.1392L59.3632 72.76L60.5872 63.076H62.2972ZM68.9175 64.642V76H67.1895V64.642H65.5335V63.076H70.5735V64.642H68.9175ZM71.56 76V63.076H73.288V76H71.56ZM79.0038 76H74.8998V63.076H76.6278V74.434H79.0038V76ZM79.9975 76V63.076H84.2815V64.642H81.7255V68.566H83.9935V70.132H81.7255V74.434H84.2815V76H79.9975ZM88.829 66.55V65.416C88.829 64.9 88.577 64.642 88.073 64.642H87.803C87.311 64.642 87.065 64.9 87.065 65.416V67.558C87.065 67.798 87.113 67.96 87.209 68.044C87.305 68.128 87.461 68.236 87.677 68.368L89.315 69.25C89.675 69.454 89.927 69.616 90.071 69.736C90.227 69.844 90.347 69.982 90.431 70.15C90.515 70.306 90.557 70.612 90.557 71.068V73.822C90.557 75.274 89.861 76 88.469 76H87.407C86.027 76 85.337 75.208 85.337 73.624V72.976H87.065V73.678C87.065 74.182 87.323 74.434 87.839 74.434H88.145C88.601 74.434 88.829 74.182 88.829 73.678V71.482C88.829 71.242 88.781 71.08 88.685 70.996C88.589 70.912 88.433 70.804 88.217 70.672L86.579 69.754C86.219 69.562 85.955 69.4 85.787 69.268C85.631 69.136 85.517 68.968 85.445 68.764C85.373 68.548 85.337 68.272 85.337 67.936V65.29C85.337 63.814 86.027 63.076 87.407 63.076H88.487C89.867 63.076 90.557 63.814 90.557 65.29V66.55H88.829Z" fill="white" fill-opacity="0.2"/>
<path d="M42.4097 27.803C42.4097 28.0699 42.626 28.2864 42.8931 28.2864H50.0543C50.3213 28.2864 50.5377 28.0699 50.5377 27.803C50.5377 27.536 50.3213 27.3196 50.0543 27.3196H42.8931C42.6261 27.3196 42.4097 27.536 42.4097 27.803Z" fill="white" fill-opacity="0.2"/>
<path d="M42.6863 32.5713C43.6277 32.5713 44.3936 31.8054 44.3936 30.8639C44.3936 29.9225 43.6277 29.1566 42.6863 29.1566C41.7449 29.1566 40.979 29.9225 40.979 30.8639C40.979 31.8054 41.7449 32.5713 42.6863 32.5713ZM42.6863 30.1234C43.0946 30.1234 43.4268 30.4556 43.4268 30.8639C43.4268 31.2722 43.0946 31.6045 42.6863 31.6045C42.278 31.6045 41.9458 31.2723 41.9458 30.8639C41.9458 30.4556 42.278 30.1234 42.6863 30.1234Z" fill="white" fill-opacity="0.2"/>
<path d="M42.6863 39.7049C43.6277 39.7049 44.3936 38.9391 44.3936 37.9976C44.3936 37.0562 43.6277 36.2903 42.6863 36.2903C41.7449 36.2903 40.979 37.0562 40.979 37.9976C40.979 38.9391 41.7449 39.7049 42.6863 39.7049ZM42.6863 37.2571C43.0946 37.2571 43.4268 37.5892 43.4268 37.9976C43.4268 38.406 43.0946 38.7382 42.6863 38.7382C42.278 38.7382 41.9458 38.406 41.9458 37.9976C41.9458 37.5892 42.278 37.2571 42.6863 37.2571Z" fill="white" fill-opacity="0.2"/>
<path d="M44.7666 34.4307C44.7666 35.3722 45.5325 36.138 46.4739 36.138C47.4153 36.138 48.1812 35.3722 48.1812 34.4307C48.1812 33.4893 47.4153 32.7234 46.4739 32.7234C45.5325 32.7234 44.7666 33.4893 44.7666 34.4307ZM47.2144 34.4307C47.2144 34.8391 46.8822 35.1713 46.4739 35.1713C46.0656 35.1713 45.7334 34.8391 45.7334 34.4307C45.7334 34.0224 46.0656 33.6902 46.4739 33.6902C46.8822 33.6902 47.2144 34.0223 47.2144 34.4307Z" fill="white" fill-opacity="0.2"/>
<path d="M50.2613 29.1566C49.3199 29.1566 48.554 29.9225 48.554 30.8639C48.554 31.8053 49.3199 32.5713 50.2613 32.5713C51.2027 32.5713 51.9685 31.8054 51.9685 30.8639C51.9685 29.9225 51.2027 29.1566 50.2613 29.1566ZM50.2613 31.6045C49.8529 31.6045 49.5207 31.2723 49.5207 30.8639C49.5207 30.4556 49.8529 30.1234 50.2613 30.1234C50.6696 30.1234 51.0018 30.4556 51.0018 30.8639C51.0018 31.2723 50.6696 31.6045 50.2613 31.6045Z" fill="white" fill-opacity="0.2"/>
<path d="M42.6863 15.901C41.7449 15.901 40.979 16.6669 40.979 17.6083C40.979 18.5497 41.7449 19.3157 42.6863 19.3157C43.6277 19.3157 44.3936 18.5498 44.3936 17.6083C44.3937 16.6669 43.6277 15.901 42.6863 15.901ZM42.6863 18.3489C42.278 18.3489 41.9458 18.0167 41.9458 17.6083C41.9458 17.2 42.278 16.8678 42.6863 16.8678C43.0946 16.8678 43.4268 17.2 43.4268 17.6083C43.4269 18.0167 43.0946 18.3489 42.6863 18.3489Z" fill="white" fill-opacity="0.2"/>
<path d="M48.1812 21.1752C48.1812 20.2338 47.4153 19.4679 46.4739 19.4679C45.5325 19.4679 44.7666 20.2338 44.7666 21.1752C44.7666 22.1167 45.5325 22.8826 46.4739 22.8826C47.4153 22.8826 48.1812 22.1167 48.1812 21.1752ZM45.7334 21.1752C45.7334 20.7669 46.0656 20.4347 46.4739 20.4347C46.8822 20.4347 47.2144 20.7669 47.2144 21.1752C47.2144 21.5836 46.8822 21.9158 46.4739 21.9158C46.0656 21.9158 45.7334 21.5836 45.7334 21.1752Z" fill="white" fill-opacity="0.2"/>
<path d="M50.2613 23.0347C49.3199 23.0347 48.554 23.8005 48.554 24.742C48.554 25.6834 49.3199 26.4493 50.2613 26.4493C51.2027 26.4493 51.9685 25.6834 51.9685 24.742C51.9685 23.8005 51.2027 23.0347 50.2613 23.0347ZM50.2613 25.4825C49.8529 25.4825 49.5207 25.1504 49.5207 24.742C49.5207 24.3336 49.8529 24.0014 50.2613 24.0014C50.6696 24.0014 51.0018 24.3336 51.0018 24.742C51.0018 25.1504 50.6696 25.4825 50.2613 25.4825Z" fill="white" fill-opacity="0.2"/>
<path d="M70.7713 20.8631L60.148 17.1125C59.1912 16.7748 58.1374 17.2784 57.7993 18.2355L53.9476 29.1451V15.8408C53.9476 14.8258 53.1218 14 52.1067 14H40.8408C39.8258 14 39 14.8258 39 15.8408V20.6455C39 20.9124 39.2164 21.1289 39.4834 21.1289C39.7504 21.1289 39.9668 20.9124 39.9668 20.6455V15.8408C39.9668 15.3588 40.3588 14.9668 40.8408 14.9668H52.1068C52.5887 14.9668 52.9809 15.3588 52.9809 15.8408V31.8833L51.3003 36.6432C51.0096 36.4201 50.6473 36.2902 50.2612 36.2902C49.3198 36.2902 48.5539 37.0561 48.5539 37.9975C48.5539 38.9251 49.2973 39.6822 50.2195 39.7044L49.8895 40.639H40.8408C40.3588 40.639 39.9668 40.247 39.9668 39.765V22.5599C39.9668 22.293 39.7504 22.0765 39.4834 22.0765C39.2164 22.0765 39 22.293 39 22.5599V39.765C39 40.7801 39.8258 41.6058 40.8408 41.6058H49.7392C49.8156 42.3063 50.2962 42.9101 50.9575 43.1435L58.3064 45.7382C58.5581 45.8269 58.8342 45.6951 58.9232 45.4433C59.0121 45.1916 58.88 44.9155 58.6283 44.8266L51.2793 42.2319C50.8525 42.0812 50.5947 41.5457 50.7462 41.1168L58.7109 18.5574C58.8714 18.1029 59.3718 17.8637 59.8261 18.0241L70.4494 21.7748C70.9038 21.9352 71.143 22.4355 70.9825 22.8899L63.0178 45.4494C62.859 45.899 62.3522 46.1415 61.9026 45.9826L60.4577 45.4725C60.2058 45.3836 59.9299 45.5156 59.841 45.7673C59.7521 46.0191 59.8842 46.2952 60.1358 46.3841L61.5807 46.8942C62.5225 47.2266 63.5969 46.7129 63.9294 45.7713L71.8942 23.2117C72.2321 22.2547 71.7284 21.2011 70.7713 20.8631ZM50.2612 38.7381C49.8529 38.7381 49.5207 38.4059 49.5207 37.9975C49.5207 37.5892 49.8529 37.257 50.2612 37.257C50.5526 37.257 50.8127 37.4276 50.9326 37.6847L50.5874 38.6623C50.4866 38.7122 50.3758 38.7381 50.2612 38.7381Z" fill="white" fill-opacity="0.2"/>
<path d="M57.327 31.2672L64.0797 33.6513C64.313 33.7336 64.6132 33.5922 64.6965 33.3565C64.7853 33.1047 64.6533 32.8286 64.4016 32.7397L57.6488 30.3556C57.397 30.2667 57.121 30.3988 57.0321 30.6505C56.9432 30.9022 57.0752 31.1784 57.327 31.2672Z" fill="white" fill-opacity="0.2"/>
<path d="M52.2891 39.7872C51.9126 40.8542 52.7631 42.0632 53.8991 42.0632C54.6215 42.0632 55.2685 41.6053 55.509 40.9239C55.8223 40.0362 55.3551 39.059 54.4675 38.7456C53.5945 38.4374 52.5973 38.9146 52.2891 39.7872ZM54.5974 40.6021C54.4931 40.8977 54.2124 41.0964 53.8991 41.0964C53.4107 41.0964 53.0382 40.5695 53.2007 40.1091C53.3239 39.7603 53.7982 39.5346 54.1457 39.6573C54.5307 39.7932 54.7333 40.2171 54.5974 40.6021Z" fill="white" fill-opacity="0.2"/>
<path d="M63.9852 34.5408C63.128 34.2379 62.1099 34.7242 61.8067 35.5824C61.4301 36.6493 62.2808 37.8583 63.4167 37.8583C64.1391 37.8583 64.7862 37.4004 65.0266 36.7191C65.3293 35.8621 64.8444 34.844 63.9852 34.5408ZM64.115 36.3972C64.0107 36.6929 63.7301 36.8914 63.4168 36.8914C62.9283 36.8914 62.5558 36.3647 62.7184 35.9042C62.8485 35.5358 63.2956 35.3225 63.6633 35.4523C64.0179 35.5775 64.2438 36.0324 64.115 36.3972Z" fill="white" fill-opacity="0.2"/>
<path d="M60.6869 22.8371C61.4094 22.8371 62.0563 22.3793 62.2969 21.6979C62.5995 20.8409 62.1144 19.8229 61.2553 19.5195C60.3983 19.217 59.38 19.7028 59.077 20.5611C58.6991 21.6315 59.5467 22.8371 60.6869 22.8371ZM59.9887 20.8829C60.1187 20.5146 60.5658 20.3013 60.9335 20.4311C61.2879 20.5564 61.514 21.0112 61.3853 21.3761C61.2809 21.6717 61.0002 21.8703 60.6869 21.8703C60.1943 21.8703 59.8248 21.3471 59.9887 20.8829Z" fill="white" fill-opacity="0.2"/>
<path d="M57.8896 23.9244C57.5124 24.993 58.3614 26.2004 59.4996 26.2004C60.222 26.2004 60.869 25.7425 61.1095 25.0612C61.4229 24.1735 60.9556 23.1963 60.068 22.8829C59.2108 22.5803 58.1926 23.066 57.8896 23.9244ZM59.1841 23.8332C59.3692 23.7458 59.5565 23.7329 59.746 23.7945C60.1311 23.9304 60.3338 24.3542 60.1979 24.7393C60.0935 25.0349 59.8129 25.2336 59.4996 25.2336C59.0091 25.2336 58.6384 24.7075 58.8013 24.2462C58.8634 24.0705 59.0029 23.9199 59.1841 23.8332Z" fill="white" fill-opacity="0.2"/>
<path d="M56.7023 27.2878C56.3256 28.3547 57.1762 29.5637 58.3122 29.5637C59.0346 29.5637 59.6816 29.1058 59.9221 28.4245C60.2291 27.5549 59.7521 26.5539 58.8806 26.2462C58.0235 25.9434 57.0053 26.4295 56.7023 27.2878ZM57.9968 27.1966C58.1819 27.1091 58.3692 27.0962 58.5588 27.1579C58.924 27.2868 59.1462 27.7184 59.0106 28.1026C58.9063 28.3983 58.6256 28.5969 58.3123 28.5969C57.8238 28.5969 57.4514 28.0701 57.6139 27.6096C57.676 27.4338 57.8155 27.2833 57.9968 27.1966Z" fill="white" fill-opacity="0.2"/>
<path d="M67.8298 25.3589C68.5522 25.3589 69.1992 24.9011 69.4398 24.2196C69.7532 23.3319 69.2859 22.3547 68.3982 22.0414C67.5254 21.7333 66.528 22.2103 66.2198 23.083C65.8432 24.15 66.6938 25.3589 67.8298 25.3589ZM67.1315 23.4048C67.2546 23.0561 67.729 22.8304 68.0764 22.953C68.4615 23.089 68.664 23.5128 68.5282 23.8978C68.4238 24.1935 68.1431 24.3921 67.8298 24.3921C67.3414 24.3921 66.9689 23.8653 67.1315 23.4048Z" fill="white" fill-opacity="0.2"/>
<path d="M65.0321 26.4463C64.8511 26.9591 64.9357 27.5375 65.2584 27.9936C66.048 29.1098 67.8001 28.8632 68.2521 27.583C68.5654 26.6953 68.0982 25.7182 67.2105 25.4048C66.7946 25.2579 66.3204 25.2865 65.9095 25.483C65.4988 25.6794 65.179 26.0306 65.0321 26.4463ZM66.3267 26.3551C66.5117 26.2676 66.699 26.2547 66.8886 26.3163C67.2737 26.4523 67.4764 26.8761 67.3405 27.2611C67.1387 27.8325 66.3834 27.9097 66.0476 27.4352C65.7807 27.0579 65.9142 26.5524 66.3267 26.3551Z" fill="white" fill-opacity="0.2"/>
<path d="M63.8448 29.8096C63.4682 30.8765 64.3188 32.0856 65.4548 32.0856C66.1772 32.0856 66.8242 31.6278 67.0648 30.9463C67.3781 30.0586 66.9109 29.0814 66.0232 28.768C65.166 28.4654 64.1478 28.9514 63.8448 29.8096ZM65.1394 29.7184C65.3245 29.631 65.5118 29.618 65.7013 29.6797C66.0864 29.8156 66.289 30.2395 66.1532 30.6245C66.0488 30.9201 65.7681 31.1189 65.4548 31.1189C64.9663 31.1189 64.594 30.592 64.7565 30.1315C64.8185 29.9557 64.958 29.8051 65.1394 29.7184Z" fill="white" fill-opacity="0.2"/>
</g>
<defs>
<clipPath id="clip0_1865_2326">
<rect width="110" height="80" fill="white"/>
</clipPath>
</defs>
</svg>
