<svg width="140" height="50" viewBox="0 0 140 50" fill="none" xmlns="http://www.w3.org/2000/svg">
<path d="M0 0H140V45C140 47.7614 137.761 50 135 50H5C2.23857 50 0 47.7614 0 45V0Z" fill="#181818"/>
<path fill-rule="evenodd" clip-rule="evenodd" d="M67.4652 24.472V38.0812H63.4714V24.472H55.5295V21.5105H75.407V24.472H67.4652Z" fill="white"/>
<path fill-rule="evenodd" clip-rule="evenodd" d="M49.3906 21.3286C50.2604 21.3286 51.1124 21.573 51.848 22.0336C52.5836 22.4942 53.1726 23.1522 53.5469 23.9313C53.9212 24.7104 54.0654 25.5787 53.9628 26.4358C53.8602 27.2928 53.5151 28.1035 52.9673 28.7739C53.7795 29.4932 54.3523 30.4402 54.6099 31.4897C54.8675 32.5392 54.7977 33.6415 54.4099 34.6508C54.022 35.6601 53.3342 36.5286 52.4378 37.1414C51.5413 37.7542 50.4784 38.0823 49.3898 38.0823C48.3012 38.0823 47.2383 37.7542 46.3418 37.1414C45.4453 36.5286 44.7576 35.6601 44.3697 34.6508C43.9818 33.6415 43.9121 32.5392 44.1697 31.4897C44.4273 30.4402 45.0001 29.4932 45.8123 28.7739C45.2645 28.1034 44.9193 27.2927 44.8168 26.4356C44.7142 25.5784 44.8585 24.71 45.2328 23.9309C45.6072 23.1518 46.1964 22.4939 46.9321 22.0333C47.6678 21.5727 48.5199 21.3284 49.3898 21.3286H49.3906ZM49.3906 30.4163C49.078 30.4107 48.7675 30.4669 48.4772 30.5818C48.1868 30.6966 47.9224 30.8676 47.6994 31.0849C47.4764 31.3023 47.2993 31.5615 47.1784 31.8475C47.0575 32.1335 46.9952 32.4405 46.9952 32.7507C46.9952 33.0608 47.0575 33.3678 47.1784 33.6538C47.2993 33.9398 47.4764 34.1991 47.6994 34.4164C47.9224 34.6337 48.1868 34.8048 48.4772 34.9196C48.7675 35.0344 49.078 35.0906 49.3906 35.0851C50.0072 35.0741 50.5948 34.8233 51.027 34.3867C51.4591 33.9501 51.7013 33.3626 51.7013 32.7507C51.7013 32.1387 51.4591 31.5512 51.027 31.1146C50.5948 30.6781 50.0072 30.4273 49.3906 30.4163ZM49.3906 24.192C49.1605 24.1852 48.9314 24.2243 48.7168 24.3069C48.5023 24.3896 48.3066 24.5142 48.1415 24.6732C47.9763 24.8323 47.845 25.0226 47.7554 25.233C47.6657 25.4433 47.6195 25.6694 47.6195 25.8977C47.6195 26.1261 47.6657 26.3522 47.7554 26.5625C47.845 26.7728 47.9763 26.9632 48.1415 27.1223C48.3066 27.2813 48.5023 27.4059 48.7168 27.4885C48.9314 27.5712 49.1605 27.6103 49.3906 27.6035C49.8376 27.5903 50.262 27.4048 50.5735 27.0864C50.885 26.7679 51.0593 26.3415 51.0593 25.8977C51.0593 25.4539 50.885 25.0276 50.5735 24.7091C50.262 24.3907 49.8376 24.2052 49.3906 24.192Z" fill="#E00000"/>
<path fill-rule="evenodd" clip-rule="evenodd" d="M90.8684 24.3626H81.6868V28.9574H90.8684C91.3632 29.0056 91.8608 28.8989 92.2915 28.6523C92.5905 28.3835 92.7359 27.9946 92.6818 27.6072V25.7119C92.7025 25.5197 92.6781 25.3252 92.6103 25.1439C92.5426 24.9626 92.4334 24.7993 92.2915 24.6669C91.8607 24.4205 91.3631 24.3141 90.8684 24.3626ZM77.7844 38.0813V21.5098H92.5669C93.6051 21.4232 94.6418 21.6921 95.5044 22.2717C95.8359 22.5856 96.091 22.9705 96.2501 23.3969C96.4093 23.8233 96.4684 24.2801 96.423 24.7326V28.6304C96.4682 29.0795 96.409 29.5329 96.2499 29.9558C96.0908 30.3786 95.836 30.7596 95.5052 31.0694C94.6335 31.6278 93.6015 31.8877 92.5669 31.8094H90.2717L98.0987 38.0813H92.4292L85.5429 31.8094H81.7333V38.0813H77.7852H77.7844ZM100.807 38.0813V21.5106H104.779V38.0813H100.807ZM107.085 38.0813L115.21 29.5886L106.947 21.5106H112.318L117.827 26.8672L123.038 21.5106H127.652L120.169 29.1099L129.396 38.0805H123.91L117.621 31.8751L111.836 38.0813H107.085ZM60.3338 11.846H56.2472V16.4008H60.3338V14.7841L61.3208 14.9887V15.7174C61.3703 16.1282 61.2636 16.5426 61.0217 16.8795C60.8708 16.9975 60.6977 17.0844 60.5126 17.1352C60.3274 17.186 60.1339 17.1997 59.9434 17.1755H56.6375C56.447 17.1997 56.2535 17.186 56.0683 17.1352C55.8832 17.0844 55.7101 16.9975 55.5592 16.8795C55.327 16.5382 55.2216 16.1274 55.2609 15.7174V12.4607C55.2218 12.0509 55.3272 11.6405 55.5592 11.2993C55.7084 11.1774 55.8806 11.0864 56.0659 11.0316C56.2511 10.9769 56.4455 10.9596 56.6375 10.9807H59.989C60.1812 10.9595 60.3758 10.9767 60.5611 11.0315C60.7465 11.0862 60.9189 11.1773 61.0681 11.2993C61.3094 11.6361 61.4159 12.0506 61.3664 12.4607V13.0527L60.3794 13.2354V11.846H60.3338ZM70.204 14.8747H73.3941L71.7877 11.7093L70.204 14.8747ZM68.0922 17.1529L71.3052 10.9346H72.3386L75.6208 17.1529H74.5417L73.7617 15.7182H69.7908L69.1706 17.1982L68.0922 17.1529ZM87.8784 11.846H83.7005V13.5767H87.5336C87.9186 13.5301 88.3065 13.6365 88.6127 13.8727C88.835 14.2178 88.9324 14.6278 88.8882 15.0348V15.7174C88.9324 16.1246 88.8352 16.5345 88.6127 16.8795C88.4617 16.9975 88.2885 17.0845 88.1032 17.1354C87.918 17.1862 87.7243 17.1998 87.5336 17.1755H84.0909C83.891 17.2126 83.6854 17.2074 83.4877 17.1603C83.2899 17.1132 83.1044 17.0252 82.9433 16.9022C82.6795 16.5657 82.5561 16.1416 82.5985 15.7174V15.5588L83.5171 15.3308V16.3328H87.9005V14.4654H84.2065C83.8143 14.513 83.4188 14.4065 83.1046 14.1687C82.9219 13.8102 82.8654 13.4014 82.944 13.0073V12.4607C82.9001 12.0537 82.9972 11.6441 83.2195 11.2993C83.3728 11.1767 83.549 11.0854 83.738 11.0307C83.927 10.9761 84.125 10.959 84.3207 10.9807H87.4423C87.6344 10.9596 87.8288 10.9769 88.014 11.0316C88.1992 11.0864 88.3715 11.1774 88.5207 11.2993C88.7549 11.596 88.862 11.9722 88.819 12.3466V12.4833L87.9933 12.734V11.846H87.8784ZM97.0828 17.1982V11.0033H98.0698V17.1982H97.0828ZM106.448 17.1982V10.9807H107.068L111.474 15.1488L111.796 15.4901L112.141 15.9228V10.9807H113.036V17.1982H112.485L107.894 12.8941C107.699 12.7209 107.529 12.5214 107.389 12.3013V17.1982H106.448ZM122.24 16.3328H127.107V11.7773H122.24V16.3328ZM121.253 12.4607C121.204 12.0502 121.31 11.6362 121.551 11.2993C121.701 11.1773 121.873 11.0862 122.058 11.0315C122.244 10.9767 122.438 10.9595 122.63 10.9807H126.716C126.909 10.9595 127.103 10.9767 127.288 11.0315C127.474 11.0862 127.646 11.1773 127.795 11.2993C128.018 11.6444 128.115 12.0544 128.07 12.4607V15.7174C128.115 16.1245 128.018 16.5344 127.795 16.8795C127.644 16.9975 127.471 17.0845 127.286 17.1354C127.101 17.1862 126.907 17.1998 126.716 17.1755H122.63C122.437 17.2022 122.242 17.1875 122.056 17.1325C121.87 17.0776 121.698 16.9835 121.551 16.8569C121.311 16.5277 121.205 16.1209 121.253 15.7174V12.4607ZM41.8961 38.0586V6L26.5923 23.5788C27.3084 24.2591 28.2611 25.391 29.4498 26.9752L37.174 19.1841V38.0813L41.8961 38.0586ZM11.0183 6.20539L11 11.772C13.4474 12.7823 16.6893 14.7093 21.3459 18.7295L11.019 6.20539H11.0183ZM11 38.0813H15.5904V21.5846C14.3035 20.6293 12.2853 19.2966 11 18.6699V38.0813Z" fill="white"/>
<path fill-rule="evenodd" clip-rule="evenodd" d="M11 12.8488V17.5931C15.3065 19.77 22.4189 25.5994 25.6927 30.3792L28.7725 27.5899C24.8785 22.4982 16.9777 15.2998 11 12.8488Z" fill="#E00000"/>
<g filter="url(#filter0_f_534_713)">
<path fill-rule="evenodd" clip-rule="evenodd" d="M67.4652 24.472V38.0812H63.4714V24.472H55.5295V21.5105H75.407V24.472H67.4652Z" fill="white"/>
<path fill-rule="evenodd" clip-rule="evenodd" d="M49.3906 21.3286C50.2604 21.3286 51.1124 21.573 51.848 22.0336C52.5836 22.4942 53.1726 23.1522 53.5469 23.9313C53.9212 24.7104 54.0654 25.5787 53.9628 26.4358C53.8602 27.2928 53.5151 28.1035 52.9673 28.7739C53.7795 29.4932 54.3523 30.4402 54.6099 31.4897C54.8675 32.5392 54.7977 33.6415 54.4099 34.6508C54.022 35.6601 53.3342 36.5286 52.4378 37.1414C51.5413 37.7542 50.4784 38.0823 49.3898 38.0823C48.3012 38.0823 47.2383 37.7542 46.3418 37.1414C45.4453 36.5286 44.7576 35.6601 44.3697 34.6508C43.9818 33.6415 43.9121 32.5392 44.1697 31.4897C44.4273 30.4402 45.0001 29.4932 45.8123 28.7739C45.2645 28.1034 44.9193 27.2927 44.8168 26.4356C44.7142 25.5784 44.8585 24.71 45.2328 23.9309C45.6072 23.1518 46.1964 22.4939 46.9321 22.0333C47.6678 21.5727 48.5199 21.3284 49.3898 21.3286H49.3906ZM49.3906 30.4163C49.078 30.4107 48.7675 30.4669 48.4772 30.5818C48.1868 30.6966 47.9224 30.8676 47.6994 31.0849C47.4764 31.3023 47.2993 31.5615 47.1784 31.8475C47.0575 32.1335 46.9952 32.4405 46.9952 32.7507C46.9952 33.0608 47.0575 33.3678 47.1784 33.6538C47.2993 33.9398 47.4764 34.1991 47.6994 34.4164C47.9224 34.6337 48.1868 34.8048 48.4772 34.9196C48.7675 35.0344 49.078 35.0906 49.3906 35.0851C50.0072 35.0741 50.5948 34.8233 51.027 34.3867C51.4591 33.9501 51.7013 33.3626 51.7013 32.7507C51.7013 32.1387 51.4591 31.5512 51.027 31.1146C50.5948 30.6781 50.0072 30.4273 49.3906 30.4163ZM49.3906 24.192C49.1605 24.1852 48.9314 24.2243 48.7168 24.3069C48.5023 24.3896 48.3066 24.5142 48.1415 24.6732C47.9763 24.8323 47.845 25.0226 47.7554 25.233C47.6657 25.4433 47.6195 25.6694 47.6195 25.8977C47.6195 26.1261 47.6657 26.3522 47.7554 26.5625C47.845 26.7728 47.9763 26.9632 48.1415 27.1223C48.3066 27.2813 48.5023 27.4059 48.7168 27.4885C48.9314 27.5712 49.1605 27.6103 49.3906 27.6035C49.8376 27.5903 50.262 27.4048 50.5735 27.0864C50.885 26.7679 51.0593 26.3415 51.0593 25.8977C51.0593 25.4539 50.885 25.0276 50.5735 24.7091C50.262 24.3907 49.8376 24.2052 49.3906 24.192Z" fill="#E00000"/>
<path fill-rule="evenodd" clip-rule="evenodd" d="M90.8684 24.3626H81.6868V28.9574H90.8684C91.3632 29.0056 91.8608 28.8989 92.2915 28.6523C92.5905 28.3835 92.7359 27.9946 92.6818 27.6072V25.7119C92.7025 25.5197 92.6781 25.3252 92.6103 25.1439C92.5426 24.9626 92.4334 24.7993 92.2915 24.6669C91.8607 24.4205 91.3631 24.3141 90.8684 24.3626ZM77.7844 38.0813V21.5098H92.5669C93.6051 21.4232 94.6418 21.6921 95.5044 22.2717C95.8359 22.5856 96.091 22.9705 96.2501 23.3969C96.4093 23.8233 96.4684 24.2801 96.423 24.7326V28.6304C96.4682 29.0795 96.409 29.5329 96.2499 29.9558C96.0908 30.3786 95.836 30.7596 95.5052 31.0694C94.6335 31.6278 93.6015 31.8877 92.5669 31.8094H90.2717L98.0987 38.0813H92.4292L85.5429 31.8094H81.7333V38.0813H77.7852H77.7844ZM100.807 38.0813V21.5106H104.779V38.0813H100.807ZM107.085 38.0813L115.21 29.5886L106.947 21.5106H112.318L117.827 26.8672L123.038 21.5106H127.652L120.169 29.1099L129.396 38.0805H123.91L117.621 31.8751L111.836 38.0813H107.085ZM60.3338 11.846H56.2472V16.4008H60.3338V14.7841L61.3208 14.9887V15.7174C61.3703 16.1282 61.2636 16.5426 61.0217 16.8795C60.8708 16.9975 60.6977 17.0844 60.5126 17.1352C60.3274 17.186 60.1339 17.1997 59.9434 17.1755H56.6375C56.447 17.1997 56.2535 17.186 56.0683 17.1352C55.8832 17.0844 55.7101 16.9975 55.5592 16.8795C55.327 16.5382 55.2216 16.1274 55.2609 15.7174V12.4607C55.2218 12.0509 55.3272 11.6405 55.5592 11.2993C55.7084 11.1774 55.8806 11.0864 56.0659 11.0316C56.2511 10.9769 56.4455 10.9596 56.6375 10.9807H59.989C60.1812 10.9595 60.3758 10.9767 60.5611 11.0315C60.7465 11.0862 60.9189 11.1773 61.0681 11.2993C61.3094 11.6361 61.4159 12.0506 61.3664 12.4607V13.0527L60.3794 13.2354V11.846H60.3338ZM70.204 14.8747H73.3941L71.7877 11.7093L70.204 14.8747ZM68.0922 17.1529L71.3052 10.9346H72.3386L75.6208 17.1529H74.5417L73.7617 15.7182H69.7908L69.1706 17.1982L68.0922 17.1529ZM87.8784 11.846H83.7005V13.5767H87.5336C87.9186 13.5301 88.3065 13.6365 88.6127 13.8727C88.835 14.2178 88.9324 14.6278 88.8882 15.0348V15.7174C88.9324 16.1246 88.8352 16.5345 88.6127 16.8795C88.4617 16.9975 88.2885 17.0845 88.1032 17.1354C87.918 17.1862 87.7243 17.1998 87.5336 17.1755H84.0909C83.891 17.2126 83.6854 17.2074 83.4877 17.1603C83.2899 17.1132 83.1044 17.0252 82.9433 16.9022C82.6795 16.5657 82.5561 16.1416 82.5985 15.7174V15.5588L83.5171 15.3308V16.3328H87.9005V14.4654H84.2065C83.8143 14.513 83.4188 14.4065 83.1046 14.1687C82.9219 13.8102 82.8654 13.4014 82.944 13.0073V12.4607C82.9001 12.0537 82.9972 11.6441 83.2195 11.2993C83.3728 11.1767 83.549 11.0854 83.738 11.0307C83.927 10.9761 84.125 10.959 84.3207 10.9807H87.4423C87.6344 10.9596 87.8288 10.9769 88.014 11.0316C88.1992 11.0864 88.3715 11.1774 88.5207 11.2993C88.7549 11.596 88.862 11.9722 88.819 12.3466V12.4833L87.9933 12.734V11.846H87.8784ZM97.0828 17.1982V11.0033H98.0698V17.1982H97.0828ZM106.448 17.1982V10.9807H107.068L111.474 15.1488L111.796 15.4901L112.141 15.9228V10.9807H113.036V17.1982H112.485L107.894 12.8941C107.699 12.7209 107.529 12.5214 107.389 12.3013V17.1982H106.448ZM122.24 16.3328H127.107V11.7773H122.24V16.3328ZM121.253 12.4607C121.204 12.0502 121.31 11.6362 121.551 11.2993C121.701 11.1773 121.873 11.0862 122.058 11.0315C122.244 10.9767 122.438 10.9595 122.63 10.9807H126.716C126.909 10.9595 127.103 10.9767 127.288 11.0315C127.474 11.0862 127.646 11.1773 127.795 11.2993C128.018 11.6444 128.115 12.0544 128.07 12.4607V15.7174C128.115 16.1245 128.018 16.5344 127.795 16.8795C127.644 16.9975 127.471 17.0845 127.286 17.1354C127.101 17.1862 126.907 17.1998 126.716 17.1755H122.63C122.437 17.2022 122.242 17.1875 122.056 17.1325C121.87 17.0776 121.698 16.9835 121.551 16.8569C121.311 16.5277 121.205 16.1209 121.253 15.7174V12.4607ZM41.8961 38.0586V6L26.5923 23.5788C27.3084 24.2591 28.2611 25.391 29.4498 26.9752L37.174 19.1841V38.0813L41.8961 38.0586ZM11.0183 6.20539L11 11.772C13.4474 12.7823 16.6893 14.7093 21.3459 18.7295L11.019 6.20539H11.0183ZM11 38.0813H15.5904V21.5846C14.3035 20.6293 12.2853 19.2966 11 18.6699V38.0813Z" fill="white"/>
<path fill-rule="evenodd" clip-rule="evenodd" d="M11 12.8488V17.5931C15.3065 19.77 22.4189 25.5994 25.6927 30.3792L28.7725 27.5899C24.8785 22.4982 16.9777 15.2998 11 12.8488Z" fill="#E00000"/>
</g>
<defs>
<filter id="filter0_f_534_713" x="1" y="-4" width="138.396" height="52.0823" filterUnits="userSpaceOnUse" color-interpolation-filters="sRGB">
<feFlood flood-opacity="0" result="BackgroundImageFix"/>
<feBlend mode="normal" in="SourceGraphic" in2="BackgroundImageFix" result="shape"/>
<feGaussianBlur stdDeviation="5" result="effect1_foregroundBlur_534_713"/>
</filter>
</defs>
</svg>
